# xmcd
#
# Track frame offsets: 
#        150
#        13894
#        29983
#        43585
#        58961
#        74236
#        89939
#        107312
#        118818
#        141137
#        155223
#        171100
#        185921
#
# Disc length: 2676 seconds
#
# Revision: 2
# Processed by: cddbd v1.5.2PL0 Copyright (c) Steve Scherf et al.
# Submitted via: ExactAudioCopy v1.2
#
DISCID=d50a720d
DTITLE=Willie Nelson - God's Problem Child
DYEAR=2017
DGENRE=Country
TTITLE0=Little House On The Hill
TTITLE1=Old Timer
TTITLE2=True Love
TTITLE3=Delete And Fast Forward
TTITLE4=A Woman's Love
TTITLE5=Your Memory Has A Mind Of Its Own
TTITLE6=Butterfly
TTITLE7=Still Not Dead
TTITLE8=God's Problem Child (feat. Tony Joe White, Leon Russel and Jamey
TTITLE8=Johnson)
TTITLE9=It Gets Easier
TTITLE10=Lady Luck
TTITLE11=I Made A Mistake
TTITLE12=He Won't Ever Be Gone
EXTD=YEAR: 2017
EXTT0=
EXTT1=
EXTT2=
EXTT3=
EXTT4=
EXTT5=
EXTT6=
EXTT7=
EXTT8=
EXTT9=
EXTT10=
EXTT11=
EXTT12=
PLAYORDER=
